<?xml version="1.0" encoding="UTF-8" standalone="no"?>
<!DOCTYPE svg PUBLIC "-//W3C//DTD SVG 1.0//EN"
	"http://www.w3.org/TR/2001/REC-SVG-20010904/DTD/svg10.dtd">
<!-- Created with Inkscape (http://www.inkscape.org/) -->
<svg
   xmlns:svg="http://www.w3.org/2000/svg"
   xmlns="http://www.w3.org/2000/svg"
   xmlns:xlink="http://www.w3.org/1999/xlink"
   version="1.0"
   width="747.71002"
   height="394.15662"
   id="svg2">
  <defs
     id="defs4">
    <pattern
       xlink:href="#pattern3300"
       id="pattern3317"
       patternTransform="matrix(2.1387283,0,0,1.2704402,1061.2567,-467.9572)" />
    <pattern
       xlink:href="#pattern3293"
       id="pattern3303"
       patternTransform="translate(-2.8515625e-6,-4.8828127e-7)" />
    <pattern
       xlink:href="#pattern3221"
       id="pattern3296"
       patternTransform="translate(7.1484375e-6,-4.8828127e-7)" />
    <pattern
       patternUnits="userSpaceOnUse"
       width="666.33664"
       height="306.33667"
       patternTransform="translate(29.688807,42.05099)"
       id="pattern3134">
      <rect
         y="1.7397637"
         x="1.7397637"
         height="302.85715"
         width="662.85712"
         id="rect2160"
         style="opacity:1;fill:#ff0000;fill-opacity:1;stroke:#ff0000;stroke-width:3.47952747;stroke-linejoin:round;stroke-miterlimit:4;stroke-dasharray:none;stroke-opacity:0.66120217" />
    </pattern>
    <pattern
       patternUnits="userSpaceOnUse"
       width="996.10304"
       height="996.10304"
       patternTransform="translate(-130.08532,-299.26825)"
       id="pattern3221">
      <g
         transform="matrix(1.2337678,1.2337678,-1.664654,1.664654,431.73546,640.96992)"
         id="g3197">
        <g
           id="g3159"
           transform="translate(0,-18.182748)">
          <rect
             y="-196.09206"
             x="-230.4133"
             height="302.85715"
             width="28.481319"
             id="rect3151"
             style="opacity:1;fill:#ffff00;fill-opacity:1;stroke:none;stroke-width:3.47952747;stroke-linejoin:round;stroke-miterlimit:4;stroke-dasharray:none;stroke-opacity:0.66120217" />
          <rect
             y="-196.09206"
             x="-201.93198"
             height="302.85715"
             width="28.481319"
             id="rect3153"
             style="opacity:1;fill:#000000;fill-opacity:1;stroke:none;stroke-width:3.47952747;stroke-linejoin:round;stroke-miterlimit:4;stroke-dasharray:none;stroke-opacity:0.66120217" />
        </g>
        <g
           id="g3163"
           transform="translate(-35.872868,-18.182748)">
          <rect
             y="-196.09206"
             x="-137.57779"
             height="302.85715"
             width="28.481319"
             id="rect3155"
             style="opacity:1;fill:#ffff00;fill-opacity:1;stroke:none;stroke-width:3.47952747;stroke-linejoin:round;stroke-miterlimit:4;stroke-dasharray:none;stroke-opacity:0.66120217" />
          <rect
             y="-196.09206"
             x="-109.09647"
             height="302.85715"
             width="28.481319"
             id="rect3157"
             style="opacity:1;fill:#000000;fill-opacity:1;stroke:none;stroke-width:3.47952747;stroke-linejoin:round;stroke-miterlimit:4;stroke-dasharray:none;stroke-opacity:0.66120217" />
        </g>
        <g
           id="g3167"
           transform="translate(78.052402,-18.182748)">
          <rect
             y="-196.09206"
             x="-137.57779"
             height="302.85715"
             width="28.481319"
             id="rect3169"
             style="opacity:1;fill:#ffff00;fill-opacity:1;stroke:none;stroke-width:3.47952747;stroke-linejoin:round;stroke-miterlimit:4;stroke-dasharray:none;stroke-opacity:0.66120217" />
          <rect
             y="-196.09206"
             x="-109.09647"
             height="302.85715"
             width="28.481319"
             id="rect3171"
             style="opacity:1;fill:#000000;fill-opacity:1;stroke:none;stroke-width:3.47952747;stroke-linejoin:round;stroke-miterlimit:4;stroke-dasharray:none;stroke-opacity:0.66120217" />
        </g>
        <g
           id="g3173"
           transform="translate(135.01504,-18.182748)">
          <rect
             y="-196.09206"
             x="-137.57779"
             height="302.85715"
             width="28.481319"
             id="rect3175"
             style="opacity:1;fill:#ffff00;fill-opacity:1;stroke:none;stroke-width:3.47952747;stroke-linejoin:round;stroke-miterlimit:4;stroke-dasharray:none;stroke-opacity:0.66120217" />
          <rect
             y="-196.09206"
             x="-109.09647"
             height="302.85715"
             width="28.481319"
             id="rect3177"
             style="opacity:1;fill:#000000;fill-opacity:1;stroke:none;stroke-width:3.47952747;stroke-linejoin:round;stroke-miterlimit:4;stroke-dasharray:none;stroke-opacity:0.66120217" />
        </g>
        <g
           id="g3179"
           transform="translate(248.94032,-18.182748)">
          <rect
             y="-196.09206"
             x="-137.57779"
             height="302.85715"
             width="28.481319"
             id="rect3181"
             style="opacity:1;fill:#ffff00;fill-opacity:1;stroke:none;stroke-width:3.47952747;stroke-linejoin:round;stroke-miterlimit:4;stroke-dasharray:none;stroke-opacity:0.66120217" />
          <rect
             y="-196.09206"
             x="-109.09647"
             height="302.85715"
             width="28.481319"
             id="rect3183"
             style="opacity:1;fill:#000000;fill-opacity:1;stroke:none;stroke-width:3.47952747;stroke-linejoin:round;stroke-miterlimit:4;stroke-dasharray:none;stroke-opacity:0.66120217" />
        </g>
        <g
           id="g3185"
           transform="translate(191.97768,-18.182748)">
          <rect
             y="-196.09206"
             x="-137.57779"
             height="302.85715"
             width="28.481319"
             id="rect3187"
             style="opacity:1;fill:#ffff00;fill-opacity:1;stroke:none;stroke-width:3.47952747;stroke-linejoin:round;stroke-miterlimit:4;stroke-dasharray:none;stroke-opacity:0.66120217" />
          <rect
             y="-196.09206"
             x="-109.09647"
             height="302.85715"
             width="28.481319"
             id="rect3189"
             style="opacity:1;fill:#000000;fill-opacity:1;stroke:none;stroke-width:3.47952747;stroke-linejoin:round;stroke-miterlimit:4;stroke-dasharray:none;stroke-opacity:0.66120217" />
        </g>
        <g
           id="g3191"
           transform="translate(21.089767,-18.182748)">
          <rect
             y="-196.09206"
             x="-137.57779"
             height="302.85715"
             width="28.481319"
             id="rect3193"
             style="opacity:1;fill:#ffff00;fill-opacity:1;stroke:none;stroke-width:3.47952747;stroke-linejoin:round;stroke-miterlimit:4;stroke-dasharray:none;stroke-opacity:0.66120217" />
          <rect
             y="-196.09206"
             x="-109.09647"
             height="302.85715"
             width="28.481319"
             id="rect3195"
             style="opacity:1;fill:#000000;fill-opacity:1;stroke:none;stroke-width:3.47952747;stroke-linejoin:round;stroke-miterlimit:4;stroke-dasharray:none;stroke-opacity:0.66120217" />
        </g>
      </g>
    </pattern>
    <pattern
       patternUnits="userSpaceOnUse"
       width="996.10303"
       height="996.10303"
       patternTransform="translate(-130.08533,-299.26825)"
       id="pattern3293">
      <rect
         id="rect3245"
         y="0"
         x="0"
         height="996.10303"
         width="996.10303"
         style="fill:url(#pattern3296);stroke:none" />
    </pattern>
    <pattern
       patternUnits="userSpaceOnUse"
       width="996.10303"
       height="996.10303"
       patternTransform="translate(-130.08533,-299.26825)"
       id="pattern3300">
      <rect
         id="rect3298"
         y="0"
         x="0"
         height="996.10303"
         width="996.10303"
         style="fill:url(#pattern3303);stroke:none" />
    </pattern>
  </defs>
  <g
     transform="translate(2.11883,3.5386549)"
     id="layer1">
    <g
       transform="matrix(1.0000001,0,0,0.9567985,-2.0203051,-2.4549718)"
       id="g3342">
      <rect
         width="666.33667"
         height="306.33667"
         x="29.688807"
         y="42.050991"
         id="rect3137"
         style="fill:none;stroke:url(#pattern3134)" />
      <path
         d="M -0.098524869,-1.1326137 L 747.61141,-1.1326137 L 747.61141,410.82101 L -0.098524869,410.82101 L -0.098524869,-1.1326137 z"
         id="path3328"
         style="fill:#ffff00;fill-opacity:1;stroke:none;stroke-width:3.47952747;stroke-linejoin:round;stroke-miterlimit:4;stroke-opacity:0.66120217" />
      <rect
         width="747.51288"
         height="408.10162"
         x="5.6749999e-05"
         y="1.8035442"
         id="rect3307"
         style="opacity:1;fill:url(#pattern3317);fill-opacity:1;stroke:none;stroke-width:3.47952747;stroke-linejoin:round;stroke-miterlimit:4;stroke-dasharray:none;stroke-opacity:0.66120217" />
      <path
         d="M 54.449767,47.354716 L 693.06323,47.354716 L 693.06323,364.354 L 54.449767,364.354 L 54.449767,47.354716 z"
         id="rect3139"
         style="fill:#ffff00;fill-opacity:1;stroke:none;stroke-width:3.47952747;stroke-linejoin:round;stroke-miterlimit:4;stroke-opacity:0.66120217" />
    </g>
    <path
       d="M 280.0383,111.90761 L 288.6357,114.50632 C 288.05818,116.91735 287.14863,118.93135 285.90705,120.54832 C 284.66542,122.1653 283.12063,123.38525 281.27268,124.20818 C 279.43912,125.0311 277.10029,125.44256 274.25616,125.44256 C 270.80564,125.44256 267.98315,124.94448 265.78869,123.9483 C 263.60866,122.9377 261.72459,121.16913 260.1365,118.6426 C 258.54839,116.11608 257.75434,112.88214 257.75434,108.94074 C 257.75434,103.68559 259.14754,99.650376 261.93394,96.835079 C 264.73476,94.005402 268.69058,92.590549 273.80139,92.590517 C 277.80049,92.590549 280.9406,93.399037 283.22172,95.015981 C 285.51722,96.632986 287.22081,99.116196 288.33252,102.46562 L 279.67014,104.393 C 279.36694,103.42572 279.04932,102.7183 278.71728,102.27072 C 278.16864,101.52 277.49731,100.94251 276.70328,100.53824 C 275.90921,100.13402 275.02132,99.931902 274.0396,99.931877 C 271.81624,99.931902 270.11265,100.82701 268.9288,102.61721 C 268.03368,103.94546 267.58612,106.03165 267.58614,108.87578 C 267.58612,112.39849 268.1203,114.81673 269.18867,116.13051 C 270.25702,117.42988 271.7585,118.07955 273.69311,118.07955 C 275.56994,118.07955 276.98479,117.55259 277.93767,116.49866 C 278.90495,115.44475 279.60515,113.9144 280.0383,111.90761 M 312.912,119.63877 L 301.73754,119.63877 L 300.19997,124.87951 L 290.17327,124.87951 L 302.10569,93.131915 L 312.80372,93.131915 L 324.73614,124.87951 L 314.47123,124.87951 L 312.912,119.63877 M 310.85469,112.77384 L 307.34642,101.36117 L 303.85982,112.77384 L 310.85469,112.77384 M 347.04175,93.131915 L 356.83023,93.131915 L 356.83023,112.0592 C 356.83019,113.93606 356.53423,115.71184 355.94233,117.38656 C 355.36481,119.04685 354.44804,120.50502 353.19203,121.76106 C 351.9504,123.00266 350.64382,123.87612 349.27231,124.38142 C 347.36656,125.08885 345.07825,125.44256 342.40738,125.44256 C 340.86257,125.44256 339.17341,125.33428 337.33989,125.11772 C 335.52078,124.90116 333.99765,124.47527 332.77049,123.84002 C 331.54331,123.19035 330.4172,122.27358 329.39216,121.08972 C 328.38155,119.90587 327.68856,118.68592 327.31319,117.42987 C 326.70682,115.40866 326.40364,113.61844 326.40365,112.0592 L 326.40365,93.131915 L 336.19213,93.131915 L 336.19213,112.51397 C 336.19211,114.24646 336.66854,115.60356 337.62142,116.58529 C 338.5887,117.55259 339.92415,118.03624 341.62776,118.03624 C 343.31691,118.03624 344.63792,117.55981 345.5908,116.60694 C 346.55807,115.63965 347.04172,114.27533 347.04175,112.51397 L 347.04175,93.131915 M 361.13976,93.131915 L 390.95997,93.131915 L 390.95997,100.97136 L 380.95493,100.97136 L 380.95493,124.87951 L 371.1448,124.87951 L 371.1448,100.97136 L 361.13976,100.97136 L 361.13976,93.131915 M 395.8109,93.131915 L 405.64269,93.131915 L 405.64269,124.87951 L 395.8109,124.87951 L 395.8109,93.131915 M 411.42483,109.02737 C 411.42483,103.8444 412.86856,99.809186 415.75602,96.921703 C 418.64346,94.034277 422.66424,92.590549 427.81837,92.590517 C 433.10239,92.590549 437.1737,94.012621 440.03231,96.856735 C 442.89086,99.686469 444.32015,103.65672 444.32019,108.7675 C 444.32015,112.47789 443.69213,115.52416 442.43612,117.9063 C 441.19448,120.27402 439.38983,122.12199 437.02214,123.45022 C 434.66884,124.76401 431.73085,125.42091 428.20818,125.42091 C 424.62771,125.42091 421.66085,124.85063 419.30759,123.71009 C 416.96874,122.56955 415.07024,120.76489 413.61208,118.29611 C 412.15391,115.82734 411.42483,112.73776 411.42483,109.02737 M 421.23497,109.07068 C 421.23496,112.27577 421.82688,114.57852 423.01075,115.97892 C 424.20903,117.37935 425.83323,118.07955 427.88334,118.07955 C 429.99116,118.07955 431.62257,117.39378 432.77758,116.02223 C 433.93254,114.6507 434.51003,112.18915 434.51005,108.63756 C 434.51003,105.64906 433.90366,103.46903 432.69095,102.09747 C 431.49264,100.71152 429.86123,100.01853 427.79671,100.0185 C 425.81879,100.01853 424.23069,100.71873 423.03241,102.11913 C 421.8341,103.51956 421.23496,105.83675 421.23497,109.07068 M 449.71251,93.131915 L 458.87297,93.131915 L 470.82705,110.69487 L 470.82705,93.131915 L 480.07413,93.131915 L 480.07413,124.87951 L 470.82705,124.87951 L 458.93794,107.44649 L 458.93794,124.87951 L 449.71251,124.87951 L 449.71251,93.131915 M 210.08962,148.5711 L 226.39654,148.5711 C 229.94809,148.57113 232.60455,149.41571 234.36592,151.10485 C 236.14168,152.79404 237.02957,155.19784 237.0296,158.31627 C 237.02957,161.52137 236.06227,164.02623 234.12771,165.83088 C 232.20752,167.63555 229.26954,168.53788 225.31374,168.53787 L 219.94307,168.53787 L 219.94307,180.3187 L 210.08962,180.3187 L 210.08962,148.5711 M 219.94307,162.10606 L 222.34688,162.10606 C 224.23815,162.10608 225.56638,161.78124 226.33157,161.13154 C 227.09673,160.46745 227.47932,159.62287 227.47934,158.5978 C 227.47932,157.60165 227.14726,156.75707 226.48316,156.06405 C 225.81903,155.37109 224.57021,155.02459 222.73669,155.02457 L 219.94307,155.02457 L 219.94307,162.10606 M 241.68563,157.3201 L 249.93654,157.3201 L 249.93654,161.08823 C 250.73058,159.45684 251.54628,158.33795 252.38366,157.73156 C 253.23544,157.11078 254.28214,156.80038 255.52377,156.80035 C 256.8231,156.80038 258.24518,157.20462 259.78998,158.01309 L 257.06134,164.29331 C 256.02184,163.8602 255.19891,163.64365 254.59256,163.64363 C 253.43756,163.64365 252.54245,164.12008 251.90723,165.07292 C 250.99766,166.4156 250.54289,168.92769 250.5429,172.60918 L 250.5429,180.3187 L 241.68563,180.3187 L 241.68563,157.3201 M 260.87278,168.88436 C 260.87278,165.37612 262.05664,162.48866 264.42435,160.22199 C 266.79206,157.94092 269.98992,156.80038 274.01793,156.80035 C 278.62341,156.80038 282.10279,158.13583 284.45609,160.8067 C 286.34735,162.95788 287.29299,165.60711 287.29302,168.75443 C 287.29299,172.29157 286.11635,175.19346 283.7631,177.46011 C 281.42424,179.71233 278.18307,180.83844 274.03959,180.83844 C 270.34363,180.83844 267.35512,179.90001 265.07403,178.02317 C 262.2732,175.69877 260.87278,172.6525 260.87278,168.88436 M 269.7084,168.86271 C 269.70839,170.91281 270.11985,172.42873 270.94279,173.41045 C 271.78014,174.39219 272.82684,174.88306 274.0829,174.88306 C 275.35336,174.88306 276.39285,174.39941 277.20135,173.43211 C 278.02426,172.46482 278.43572,170.91281 278.43574,168.77608 C 278.43572,166.78375 278.02426,165.30393 277.20135,164.33662 C 276.37841,163.3549 275.36058,162.86403 274.14787,162.86402 C 272.86293,162.86403 271.8018,163.36212 270.96445,164.35827 C 270.12707,165.34002 269.70839,166.8415 269.7084,168.86271 M 307.58463,157.3201 L 315.83554,157.3201 L 315.83554,179.041 L 315.85719,180.05882 C 315.85717,181.50255 315.54676,182.87409 314.92599,184.17345 C 314.3196,185.48724 313.50389,186.54838 312.47887,187.35687 C 311.46823,188.16535 310.1761,188.75006 308.60246,189.111 C 307.04321,189.47193 305.25299,189.65239 303.23179,189.6524 C 298.61184,189.65239 295.43564,188.9594 293.70318,187.57343 C 291.98514,186.18745 291.12612,184.33226 291.12612,182.00786 C 291.12612,181.71911 291.14056,181.3293 291.16943,180.83844 L 299.72352,181.81295 C 299.94007,182.607 300.27213,183.15562 300.7197,183.4588 C 301.36936,183.90636 302.18507,184.13013 303.16682,184.13014 C 304.43728,184.13013 305.38292,183.79086 306.00374,183.11231 C 306.63897,182.43376 306.95659,181.2499 306.95661,179.56074 L 306.95661,176.07413 C 306.09035,177.09918 305.22411,177.8427 304.35789,178.30469 C 303.00077,179.02656 301.53539,179.38749 299.96174,179.38749 C 296.88659,179.38749 294.40338,178.04482 292.5121,175.35949 C 291.16943,173.45377 290.4981,170.93447 290.4981,167.80157 C 290.4981,164.22114 291.36433,161.49249 293.09681,159.61563 C 294.82928,157.7388 297.09593,156.80038 299.89677,156.80035 C 301.68698,156.80038 303.15958,157.10356 304.31458,157.7099 C 305.48399,158.31629 306.574,159.31968 307.58463,160.72008 L 307.58463,157.3201 M 299.29041,168.4729 C 299.2904,170.1332 299.64411,171.36759 300.35155,172.17607 C 301.05896,172.97012 301.99017,173.36715 303.14516,173.36714 C 304.24238,173.36715 305.15915,172.95569 305.89546,172.13275 C 306.64619,171.2954 307.02156,170.03936 307.02157,168.36462 C 307.02156,166.68991 306.63175,165.41221 305.85215,164.53152 C 305.07252,163.63643 304.11966,163.18887 302.99357,163.18885 C 301.86745,163.18887 300.96512,163.60033 300.28658,164.42324 C 299.62245,165.23175 299.2904,166.58163 299.29041,168.4729 M 322.07244,157.3201 L 330.32335,157.3201 L 330.32335,161.08823 C 331.11739,159.45684 331.9331,158.33795 332.77047,157.73156 C 333.62226,157.11078 334.66896,156.80038 335.91058,156.80035 C 337.20992,156.80038 338.63199,157.20462 340.1768,158.01309 L 337.44815,164.29331 C 336.40865,163.8602 335.58573,163.64365 334.97938,163.64363 C 333.82438,163.64365 332.92927,164.12008 332.29404,165.07292 C 331.38448,166.4156 330.9297,168.92769 330.92972,172.60918 L 330.92972,180.3187 L 322.07244,180.3187 L 322.07244,157.3201 M 350.46336,164.76974 L 342.0392,163.88184 C 342.35682,162.40926 342.81159,161.25428 343.40353,160.4169 C 344.00989,159.56512 344.87612,158.82882 346.00224,158.20799 C 346.81072,157.76046 347.92239,157.41396 349.33725,157.16851 C 350.75209,156.9231 352.28244,156.80038 353.92831,156.80035 C 356.57031,156.80038 358.69259,156.95197 360.29515,157.25513 C 361.89767,157.5439 363.23312,158.15748 364.3015,159.09588 C 365.05221,159.74558 365.64414,160.66957 366.07728,161.86784 C 366.51038,163.05172 366.72694,164.18504 366.72696,165.26782 L 366.72696,175.42445 C 366.72694,176.50726 366.7919,177.35905 366.92187,177.97985 C 367.06621,178.58622 367.36939,179.36584 367.83142,180.3187 L 359.55885,180.3187 C 359.22677,179.72677 359.01021,179.27921 358.90917,178.97603 C 358.80809,178.65841 358.70703,178.16754 358.60599,177.50342 C 357.45099,178.6151 356.30322,179.40915 355.1627,179.88558 C 353.60346,180.52082 351.79158,180.83844 349.72706,180.83844 C 346.98397,180.83844 344.89778,180.2032 343.46849,178.93272 C 342.05364,177.66224 341.34621,176.09579 341.34621,174.23338 C 341.34621,172.48647 341.85873,171.04997 342.88378,169.92385 C 343.90883,168.79775 345.80011,167.96039 348.55764,167.41176 C 351.86376,166.74766 354.0077,166.28567 354.98945,166.02578 C 355.97117,165.75149 357.01065,165.39777 358.1079,164.96464 C 358.10788,163.88186 357.88411,163.1239 357.43657,162.69077 C 356.989,162.25767 356.20216,162.04111 355.07607,162.04109 C 353.63233,162.04111 352.54953,162.2721 351.82768,162.73408 C 351.26462,163.09503 350.80984,163.77358 350.46336,164.76974 M 358.1079,169.40411 C 356.89515,169.83724 355.63189,170.21982 354.31811,170.55187 C 352.52788,171.02831 351.39455,171.49752 350.91813,171.95951 C 350.42726,172.43594 350.18182,172.97734 350.18183,173.5837 C 350.18182,174.2767 350.42004,174.84697 350.89648,175.29452 C 351.38733,175.72764 352.10198,175.9442 353.04041,175.9442 C 354.02214,175.9442 354.93168,175.70599 355.76906,175.22955 C 356.62084,174.75313 357.21999,174.17564 357.5665,173.49708 C 357.92742,172.80409 358.10788,171.90898 358.1079,170.81174 L 358.1079,169.40411 M 372.1193,157.3201 L 380.34855,157.3201 L 380.34855,160.67677 C 381.5324,159.27637 382.72347,158.2802 383.92178,157.68825 C 385.1345,157.09634 386.59266,156.80038 388.29628,156.80035 C 390.12979,156.80038 391.58074,157.12522 392.64912,157.77487 C 393.71745,158.42457 394.59091,159.39187 395.26949,160.67677 C 396.65544,159.17531 397.9187,158.15748 399.05927,157.62328 C 400.19979,157.07469 401.60742,156.80038 403.28218,156.80035 C 405.75092,156.80038 407.6783,157.53668 409.06431,159.00926 C 410.45025,160.46745 411.14324,162.75575 411.14328,165.87419 L 411.14328,180.3187 L 402.30766,180.3187 L 402.30766,167.21686 C 402.30763,166.17739 402.10551,165.40499 401.7013,164.89967 C 401.10934,164.10564 400.37304,163.70861 399.49239,163.7086 C 398.45288,163.70861 397.61552,164.08398 396.98031,164.8347 C 396.34504,165.58546 396.02742,166.79097 396.02744,168.45125 L 396.02744,180.3187 L 387.19182,180.3187 L 387.19182,167.64998 C 387.19181,166.63938 387.13406,165.95361 387.01858,165.59266 C 386.83087,165.01519 386.50604,164.55319 386.04406,164.20668 C 385.58205,163.84577 385.04065,163.6653 384.41987,163.66528 C 383.40924,163.6653 382.5791,164.04789 381.92943,164.81305 C 381.27974,165.57824 380.95491,166.83428 380.95492,168.58118 L 380.95492,180.3187 L 372.1193,180.3187 L 372.1193,157.3201 M 416.47065,157.3201 L 424.6999,157.3201 L 424.6999,160.67677 C 425.88374,159.27637 427.07482,158.2802 428.27313,157.68825 C 429.48584,157.09634 430.94401,156.80038 432.64763,156.80035 C 434.48114,156.80038 435.93209,157.12522 437.00047,157.77487 C 438.0688,158.42457 438.94226,159.39187 439.62084,160.67677 C 441.00679,159.17531 442.27005,158.15748 443.41062,157.62328 C 444.55114,157.07469 445.95877,156.80038 447.63353,156.80035 C 450.10227,156.80038 452.02965,157.53668 453.41566,159.00926 C 454.8016,160.46745 455.49459,162.75575 455.49463,165.87419 L 455.49463,180.3187 L 446.65901,180.3187 L 446.65901,167.21686 C 446.65898,166.17739 446.45686,165.40499 446.05265,164.89967 C 445.46069,164.10564 444.72439,163.70861 443.84374,163.7086 C 442.80423,163.70861 441.96687,164.08398 441.33165,164.8347 C 440.69639,165.58546 440.37877,166.79097 440.37879,168.45125 L 440.37879,180.3187 L 431.54317,180.3187 L 431.54317,167.64998 C 431.54316,166.63938 431.48541,165.95361 431.36993,165.59266 C 431.18222,165.01519 430.85739,164.55319 430.39541,164.20668 C 429.9334,163.84577 429.392,163.6653 428.77121,163.66528 C 427.76059,163.6653 426.93045,164.04789 426.28078,164.81305 C 425.63109,165.57824 425.30625,166.83428 425.30627,168.58118 L 425.30627,180.3187 L 416.47065,180.3187 L 416.47065,157.3201 M 461.08185,148.5711 L 469.89581,148.5711 L 469.89581,154.56979 L 461.08185,154.56979 L 461.08185,148.5711 M 461.08185,157.3201 L 469.89581,157.3201 L 469.89581,180.3187 L 461.08185,180.3187 L 461.08185,157.3201 M 475.56968,157.3201 L 483.77728,157.3201 L 483.77728,161.06657 C 485.00443,159.53624 486.24604,158.44623 487.5021,157.79653 C 488.75813,157.13244 490.28848,156.80038 492.09315,156.80035 C 494.53303,156.80038 496.43875,157.52946 497.81032,158.9876 C 499.19627,160.43135 499.88926,162.66913 499.88929,165.70094 L 499.88929,180.3187 L 491.03201,180.3187 L 491.03201,167.67163 C 491.032,166.22792 490.76491,165.21009 490.23074,164.61815 C 489.69655,164.0118 488.94581,163.70861 487.97853,163.7086 C 486.91015,163.70861 486.04392,164.11286 485.37982,164.92133 C 484.71569,165.72983 484.38363,167.18078 484.38364,169.27417 L 484.38364,180.3187 L 475.56968,180.3187 L 475.56968,157.3201 M 521.19872,157.3201 L 529.44963,157.3201 L 529.44963,179.041 L 529.47128,180.05882 C 529.47126,181.50255 529.16085,182.87409 528.54008,184.17345 C 527.93369,185.48724 527.11798,186.54838 526.09296,187.35687 C 525.08232,188.16535 523.79019,188.75006 522.21655,189.111 C 520.6573,189.47193 518.86708,189.65239 516.84588,189.6524 C 512.22593,189.65239 509.04973,188.9594 507.31727,187.57343 C 505.59923,186.18745 504.74021,184.33226 504.74021,182.00786 C 504.74021,181.71911 504.75465,181.3293 504.78352,180.83844 L 513.33761,181.81295 C 513.55416,182.607 513.88622,183.15562 514.33379,183.4588 C 514.98345,183.90636 515.79916,184.13013 516.78091,184.13014 C 518.05137,184.13013 518.99701,183.79086 519.61783,183.11231 C 520.25306,182.43376 520.57068,181.2499 520.5707,179.56074 L 520.5707,176.07413 C 519.70444,177.09918 518.8382,177.8427 517.97198,178.30469 C 516.61486,179.02656 515.14948,179.38749 513.57583,179.38749 C 510.50068,179.38749 508.01747,178.04482 506.12619,175.35949 C 504.78352,173.45377 504.11219,170.93447 504.11219,167.80157 C 504.11219,164.22114 504.97842,161.49249 506.7109,159.61563 C 508.44337,157.7388 510.71002,156.80038 513.51086,156.80035 C 515.30107,156.80038 516.77367,157.10356 517.92867,157.7099 C 519.09808,158.31629 520.18809,159.31968 521.19872,160.72008 L 521.19872,157.3201 M 512.9045,168.4729 C 512.90449,170.1332 513.2582,171.36759 513.96564,172.17607 C 514.67305,172.97012 515.60426,173.36715 516.75925,173.36714 C 517.85647,173.36715 518.77324,172.95569 519.50955,172.13275 C 520.26028,171.2954 520.63565,170.03936 520.63566,168.36462 C 520.63565,166.68991 520.24584,165.41221 519.46624,164.53152 C 518.68661,163.63643 517.73375,163.18887 516.60766,163.18885 C 515.48154,163.18887 514.57921,163.60033 513.90067,164.42324 C 513.23654,165.23175 512.90449,166.58163 512.9045,168.4729 M 232.222,204.01028 L 241.03597,204.01028 L 241.03597,210.00897 L 232.222,210.00897 L 232.222,204.01028 M 232.222,212.75928 L 241.03597,212.75928 L 241.03597,235.75787 L 232.222,235.75787 L 232.222,212.75928 M 245.15059,229.39103 L 253.89959,228.5681 C 254.26051,229.6076 254.76581,230.35112 255.4155,230.79867 C 256.06517,231.24623 256.93141,231.47 258.01421,231.47 C 259.19806,231.47 260.11482,231.21735 260.76452,230.71204 C 261.26981,230.33668 261.52246,229.86747 261.52248,229.30441 C 261.52246,228.66917 261.1904,228.17831 260.5263,227.8318 C 260.04986,227.58638 258.78659,227.28319 256.73651,226.92225 C 253.6758,226.38808 251.5463,225.89722 250.34802,225.44965 C 249.16415,224.98767 248.16076,224.21527 247.33784,223.13247 C 246.52935,222.04968 246.12511,220.8153 246.12511,219.4293 C 246.12511,217.9134 246.56544,216.60683 247.44612,215.50958 C 248.32679,214.41237 249.53952,213.59666 251.08432,213.06246 C 252.6291,212.51387 254.70085,212.23956 257.29957,212.23953 C 260.04264,212.23956 262.06386,212.4489 263.36323,212.86756 C 264.677,213.28626 265.76702,213.93594 266.63328,214.81659 C 267.51393,215.69728 268.24301,216.88836 268.82052,218.38982 L 260.46133,219.21274 C 260.24476,218.47646 259.88383,217.93506 259.37854,217.58855 C 258.68553,217.12657 257.84817,216.89558 256.86645,216.89556 C 255.87027,216.89558 255.14118,217.07604 254.6792,217.43696 C 254.23164,217.78347 254.00786,218.20937 254.00787,218.71466 C 254.00786,219.27773 254.2966,219.70363 254.8741,219.99236 C 255.45159,220.28112 256.70763,220.54099 258.64224,220.77197 C 261.57299,221.10404 263.75302,221.56603 265.18233,222.15795 C 266.6116,222.74989 267.70161,223.59447 268.45237,224.69169 C 269.21752,225.78894 269.60011,226.99445 269.60014,228.30823 C 269.60011,229.63647 269.19587,230.92861 268.38741,232.18465 C 267.59333,233.44069 266.33007,234.44408 264.59762,235.19482 C 262.87956,235.93112 260.5335,236.29927 257.55944,236.29927 C 253.35818,236.29927 250.36245,235.70012 248.57223,234.50183 C 246.79644,233.30354 245.6559,231.59994 245.15059,229.39103 M 296.67005,220.20892 L 288.24589,219.32102 C 288.56351,217.84844 289.01828,216.69346 289.61022,215.85607 C 290.21658,215.00429 291.08281,214.26799 292.20893,213.64717 C 293.01741,213.19964 294.12908,212.85314 295.54394,212.60768 C 296.95878,212.36227 298.48914,212.23956 300.135,212.23953 C 302.77701,212.23956 304.89928,212.39115 306.50184,212.69431 C 308.10436,212.98308 309.43981,213.59666 310.50819,214.53506 C 311.2589,215.18476 311.85083,216.10875 312.28398,217.30702 C 312.71707,218.4909 312.93363,219.62422 312.93365,220.707 L 312.93365,230.86363 C 312.93363,231.94643 312.99859,232.79823 313.12856,233.41903 C 313.2729,234.0254 313.57609,234.80501 314.03811,235.75787 L 305.76554,235.75787 C 305.43346,235.16595 305.2169,234.71839 305.11586,234.41521 C 305.01478,234.09759 304.91372,233.60672 304.81268,232.9426 C 303.65768,234.05428 302.50992,234.84833 301.36939,235.32475 C 299.81015,235.96 297.99827,236.27762 295.93375,236.27762 C 293.19066,236.27762 291.10447,235.64238 289.67518,234.37189 C 288.26033,233.10142 287.5529,231.53497 287.5529,229.67256 C 287.5529,227.92565 288.06542,226.48914 289.09047,225.36303 C 290.11552,224.23693 292.0068,223.39957 294.76433,222.85094 C 298.07045,222.18684 300.21439,221.72484 301.19614,221.46496 C 302.17786,221.19067 303.21734,220.83695 304.31459,220.40382 C 304.31457,219.32104 304.0908,218.56308 303.64326,218.12995 C 303.19569,217.69685 302.40885,217.48029 301.28276,217.48027 C 299.83902,217.48029 298.75623,217.71128 298.03437,218.17326 C 297.47131,218.53421 297.01653,219.21276 296.67005,220.20892 M 304.31459,224.84328 C 303.10184,225.27641 301.83858,225.659 300.52481,225.99105 C 298.73457,226.46749 297.60124,226.9367 297.12482,227.39868 C 296.63395,227.87512 296.38851,228.41652 296.38852,229.02288 C 296.38851,229.71588 296.62673,230.28615 297.10317,230.7337 C 297.59402,231.16682 298.30867,231.38338 299.24711,231.38338 C 300.22883,231.38338 301.13837,231.14517 301.97575,230.66873 C 302.82754,230.19231 303.42668,229.61481 303.77319,228.93626 C 304.13411,228.24327 304.31457,227.34816 304.31459,226.25092 L 304.31459,224.84328 M 342.47234,204.01028 L 342.47234,235.75787 L 334.22143,235.75787 L 334.22143,232.35789 C 333.06643,233.80162 332.01251,234.77614 331.05966,235.28144 C 329.78917,235.94556 328.37432,236.27762 326.8151,236.27762 C 323.6822,236.27762 321.28561,235.08654 319.62533,232.70439 C 317.97948,230.32224 317.15655,227.42757 317.15656,224.02036 C 317.15655,220.20893 318.0661,217.2926 319.8852,215.27136 C 321.71873,213.25017 324.04313,212.23956 326.85841,212.23953 C 328.22994,212.23956 329.47155,212.47055 330.58323,212.93252 C 331.70933,213.39454 332.7055,214.08753 333.57175,215.01149 L 333.57175,204.01028 L 342.47234,204.01028 M 333.63672,224.19361 C 333.6367,222.38896 333.25411,221.04629 332.48895,220.1656 C 331.72376,219.27051 330.75647,218.82295 329.58706,218.82294 C 328.562,218.82295 327.70298,219.24885 327.01,220.10064 C 326.317,220.95245 325.97051,222.38174 325.97052,224.38851 C 325.97051,226.26537 326.32422,227.64413 327.03166,228.52479 C 327.75351,229.39104 328.6414,229.82415 329.69534,229.82415 C 330.82143,229.82415 331.75986,229.38382 332.51061,228.50314 C 333.26133,227.62247 333.6367,226.18596 333.63672,224.19361 M 372.53077,204.01028 L 372.53077,235.75787 L 364.27986,235.75787 L 364.27986,232.35789 C 363.12486,233.80162 362.07094,234.77614 361.1181,235.28144 C 359.8476,235.94556 358.43275,236.27762 356.87353,236.27762 C 353.74064,236.27762 351.34405,235.08654 349.68377,232.70439 C 348.03791,230.32224 347.21499,227.42757 347.21499,224.02036 C 347.21499,220.20893 348.12454,217.2926 349.94364,215.27136 C 351.77717,213.25017 354.10157,212.23956 356.91685,212.23953 C 358.28838,212.23956 359.52998,212.47055 360.64167,212.93252 C 361.76776,213.39454 362.76393,214.08753 363.63018,215.01149 L 363.63018,204.01028 L 372.53077,204.01028 M 363.69515,224.19361 C 363.69513,222.38896 363.31255,221.04629 362.54739,220.1656 C 361.7822,219.27051 360.8149,218.82295 359.64549,218.82294 C 358.62043,218.82295 357.76142,219.24885 357.06844,220.10064 C 356.37544,220.95245 356.02894,222.38174 356.02895,224.38851 C 356.02894,226.26537 356.38266,227.64413 357.09009,228.52479 C 357.81195,229.39104 358.69984,229.82415 359.75377,229.82415 C 360.87987,229.82415 361.81829,229.38382 362.56904,228.50314 C 363.31977,227.62247 363.69513,226.18596 363.69515,224.19361 M 378.26959,204.01028 L 387.08356,204.01028 L 387.08356,210.00897 L 378.26959,210.00897 L 378.26959,204.01028 M 378.26959,212.75928 L 387.08356,212.75928 L 387.08356,235.75787 L 378.26959,235.75787 L 378.26959,212.75928 M 409.9089,226.77066 L 418.28975,227.72352 C 417.82773,229.47044 417.06977,230.98636 416.01588,232.27127 C 414.96193,233.54175 413.61204,234.53071 411.96622,235.23813 C 410.33478,235.94556 408.25582,236.29927 405.72931,236.29927 C 403.2894,236.29927 401.25374,236.07549 399.62234,235.62794 C 398.00535,235.16595 396.61216,234.42964 395.44274,233.41903 C 394.27332,232.39399 393.35655,231.1957 392.69244,229.82415 C 392.02832,228.45261 391.69627,226.63352 391.69627,224.36685 C 391.69627,221.99915 392.10051,220.02847 392.909,218.45479 C 393.50092,217.29982 394.30941,216.26756 395.33446,215.35799 C 396.3595,214.43402 397.41343,213.74825 398.49623,213.30067 C 400.21426,212.59327 402.41594,212.23956 405.10129,212.23953 C 408.85496,212.23956 411.71354,212.91089 413.67704,214.25353 C 415.65492,215.59622 417.0409,217.55969 417.83497,220.14395 L 409.54075,221.2484 C 409.28086,220.26668 408.80443,219.53038 408.11146,219.0395 C 407.43289,218.53421 406.51613,218.28156 405.36116,218.28154 C 403.90298,218.28156 402.71912,218.80852 401.80959,219.86242 C 400.91446,220.90192 400.46691,222.4828 400.46692,224.60507 C 400.46691,226.49636 400.91446,227.93287 401.80959,228.9146 C 402.70469,229.89634 403.84523,230.38721 405.23122,230.3872 C 406.38619,230.38721 407.35349,230.09124 408.13312,229.49931 C 408.92715,228.90739 409.51908,227.99784 409.9089,226.77066 M 433.01579,204.01028 L 433.01579,212.75928 L 437.86672,212.75928 L 437.86672,219.19109 L 433.01579,219.19109 L 433.01579,227.35537 C 433.01578,228.33712 433.10962,228.98679 433.29732,229.30441 C 433.58605,229.79528 434.09135,230.04071 434.81323,230.04071 C 435.46289,230.04071 436.37244,229.85303 437.54188,229.47765 L 438.19156,235.56297 C 436.01151,236.0394 433.97586,236.27762 432.08458,236.27762 C 429.89011,236.27762 428.27313,235.99609 427.23366,235.43303 C 426.19417,234.86998 425.42177,234.01818 424.91647,232.87763 C 424.4256,231.72266 424.18017,229.86025 424.18017,227.2904 L 424.18017,219.19109 L 420.93178,219.19109 L 420.93178,212.75928 L 424.18017,212.75928 L 424.18017,208.53637 L 433.01579,204.01028 M 442.37114,204.01028 L 451.1851,204.01028 L 451.1851,210.00897 L 442.37114,210.00897 L 442.37114,204.01028 M 442.37114,212.75928 L 451.1851,212.75928 L 451.1851,235.75787 L 442.37114,235.75787 L 442.37114,212.75928 M 454.2386,212.75928 L 463.42072,212.75928 L 467.88184,227.33372 L 472.49455,212.75928 L 481.39514,212.75928 L 471.62831,235.75787 L 463.81052,235.75787 L 454.2386,212.75928 M 508.37842,226.44582 L 490.70718,226.44582 C 490.86598,227.86069 491.24857,228.91461 491.85494,229.60759 C 492.70673,230.60377 493.8184,231.10185 495.18996,231.10185 C 496.05618,231.10185 496.8791,230.88529 497.65873,230.45217 C 498.13515,230.17787 498.64767,229.69422 499.1963,229.00122 L 507.88033,229.80249 C 506.55208,232.11246 504.94954,233.77275 503.07272,234.78336 C 501.19585,235.77953 498.5033,236.27762 494.99505,236.27762 C 491.94877,236.27762 489.55219,235.85172 487.80528,234.99992 C 486.05837,234.13368 484.60742,232.76936 483.45244,230.90695 C 482.31189,229.0301 481.74162,226.82842 481.74162,224.30189 C 481.74162,220.70702 482.88939,217.79791 485.18492,215.57455 C 487.49488,213.35123 490.67829,212.23956 494.73518,212.23953 C 498.02687,212.23956 500.62557,212.73764 502.53132,213.73379 C 504.43701,214.72999 505.88796,216.17371 506.88416,218.06498 C 507.8803,219.95628 508.37839,222.41783 508.37842,225.44965 L 508.37842,226.44582 M 499.41286,222.22292 C 499.2396,220.51933 498.7776,219.29938 498.02688,218.56306 C 497.29056,217.82678 496.31605,217.45863 495.10333,217.45861 C 493.7029,217.45863 492.58401,218.01447 491.74666,219.12612 C 491.21247,219.81912 490.8732,220.85139 490.72884,222.22292 L 499.41286,222.22292 M 151.72691,258.90805 L 157.22752,258.90805 C 155.33622,263.09489 153.9719,266.96408 153.13454,270.51563 C 152.42711,273.53304 152.07339,276.75255 152.0734,280.17418 C 152.07339,286.77202 153.79143,293.55754 157.22752,300.53075 L 151.72691,300.53075 C 148.92607,296.56049 146.95538,292.97283 145.81484,289.76775 C 144.68873,286.54824 144.12568,283.17714 144.12568,279.65443 C 144.12568,276.00182 144.7176,272.52965 145.90146,269.23793 C 147.09975,265.94626 149.04157,262.50297 151.72691,258.90805 M 169.63636,275.64809 L 161.21221,274.76019 C 161.52983,273.28761 161.9846,272.13263 162.57653,271.29524 C 163.18289,270.44347 164.04913,269.70716 165.17524,269.08634 C 165.98372,268.63881 167.09539,268.29231 168.51026,268.04685 C 169.9251,267.80144 171.45545,267.67873 173.10131,267.6787 C 175.74332,267.67873 177.8656,267.83032 179.46816,268.13348 C 181.07067,268.42225 182.40612,269.03583 183.4745,269.97423 C 184.22522,270.62393 184.81715,271.54792 185.25029,272.74619 C 185.68338,273.93007 185.89994,275.06339 185.89997,276.14617 L 185.89997,286.3028 C 185.89994,287.3856 185.96491,288.2374 186.09487,288.8582 C 186.23922,289.46457 186.5424,290.24418 187.00442,291.19704 L 178.73185,291.19704 C 178.39978,290.60512 178.18322,290.15756 178.08218,289.85438 C 177.9811,289.53676 177.88004,289.04589 177.77899,288.38177 C 176.62399,289.49345 175.47623,290.2875 174.3357,290.76393 C 172.77646,291.39917 170.96458,291.71679 168.90006,291.71679 C 166.15697,291.71679 164.07078,291.08155 162.6415,289.81106 C 161.22664,288.54059 160.51922,286.97414 160.51922,285.11173 C 160.51922,283.36482 161.03174,281.92832 162.05679,280.8022 C 163.08183,279.6761 164.97311,278.83874 167.73064,278.29011 C 171.03677,277.62601 173.1807,277.16402 174.16245,276.90413 C 175.14417,276.62984 176.18366,276.27612 177.28091,275.84299 C 177.28089,274.76021 177.05711,274.00225 176.60957,273.56912 C 176.162,273.13602 175.37517,272.91946 174.24908,272.91944 C 172.80533,272.91946 171.72254,273.15045 171.00069,273.61243 C 170.43762,273.97338 169.98285,274.65193 169.63636,275.64809 M 177.28091,280.28246 C 176.06816,280.71558 174.8049,281.09817 173.49112,281.43022 C 171.70088,281.90666 170.56756,282.37587 170.09114,282.83786 C 169.60026,283.31429 169.35483,283.85569 169.35484,284.46205 C 169.35483,285.15505 169.59304,285.72532 170.06948,286.17287 C 170.56034,286.60599 171.27498,286.82255 172.21342,286.82255 C 173.19514,286.82255 174.10469,286.58434 174.94207,286.1079 C 175.79385,285.63148 176.393,285.05398 176.73951,284.37543 C 177.10042,283.68244 177.28089,282.78733 177.28091,281.69009 L 177.28091,280.28246 M 191.22733,268.19845 L 199.43492,268.19845 L 199.43492,271.94492 C 200.66208,270.41459 201.90369,269.32458 203.15974,268.67488 C 204.41577,268.01078 205.94612,267.67873 207.7508,267.6787 C 210.19068,267.67873 212.0964,268.40781 213.46797,269.86595 C 214.85392,271.3097 215.54691,273.54748 215.54694,276.57929 L 215.54694,291.19704 L 206.68966,291.19704 L 206.68966,278.54998 C 206.68964,277.10627 206.42255,276.08844 205.88839,275.49649 C 205.3542,274.89015 204.60346,274.58696 203.63617,274.58695 C 202.5678,274.58696 201.70157,274.99121 201.03746,275.79968 C 200.37334,276.60818 200.04128,278.05913 200.04129,280.15252 L 200.04129,291.19704 L 191.22733,291.19704 L 191.22733,268.19845 M 245.06397,259.44945 L 245.06397,291.19704 L 236.81306,291.19704 L 236.81306,287.79706 C 235.65806,289.24079 234.60414,290.21531 233.65129,290.72061 C 232.3808,291.38473 230.96595,291.71679 229.40673,291.71679 C 226.27383,291.71679 223.87725,290.52571 222.21696,288.14356 C 220.57111,285.76141 219.74819,282.86674 219.74819,279.45953 C 219.74819,275.6481 220.65773,272.73177 222.47683,270.71053 C 224.31036,268.68934 226.63476,267.67873 229.45004,267.6787 C 230.82157,267.67873 232.06318,267.90972 233.17486,268.37169 C 234.30096,268.83371 235.29713,269.5267 236.16338,270.45066 L 236.16338,259.44945 L 245.06397,259.44945 M 236.22835,279.63278 C 236.22833,277.82813 235.84574,276.48546 235.08059,275.60477 C 234.31539,274.70968 233.3481,274.26212 232.17869,274.26211 C 231.15363,274.26212 230.29461,274.68802 229.60164,275.53981 C 228.90863,276.39162 228.56214,277.82091 228.56215,279.82768 C 228.56214,281.70454 228.91585,283.0833 229.62329,283.96396 C 230.34514,284.83021 231.23304,285.26333 232.28697,285.26332 C 233.41306,285.26333 234.35149,284.82299 235.10224,283.94231 C 235.85296,283.06164 236.22833,281.62513 236.22835,279.63278 M 275.92367,259.44945 L 275.92367,268.19845 L 280.7746,268.19845 L 280.7746,274.63026 L 275.92367,274.63026 L 275.92367,282.79454 C 275.92365,283.77629 276.0175,284.42596 276.20519,284.74358 C 276.49393,285.23445 276.99923,285.47988 277.72111,285.47988 C 278.37077,285.47988 279.28032,285.2922 280.44976,284.91682 L 281.09943,291.00214 C 278.91939,291.47857 276.88373,291.71679 274.99246,291.71679 C 272.79798,291.71679 271.18101,291.43526 270.14153,290.87221 C 269.10204,290.30915 268.32965,289.45735 267.82435,288.31681 C 267.33348,287.16183 267.08804,285.29942 267.08805,282.72958 L 267.08805,274.63026 L 263.83966,274.63026 L 263.83966,268.19845 L 267.08805,268.19845 L 267.08805,263.97554 L 275.92367,259.44945 M 283.8714,279.76271 C 283.8714,276.25447 285.05525,273.36701 287.42297,271.10034 C 289.79068,268.81927 292.98853,267.67873 297.01655,267.6787 C 301.62202,267.67873 305.10141,269.01418 307.45471,271.68505 C 309.34596,273.83622 310.2916,276.48546 310.29163,279.63278 C 310.2916,283.16992 309.11497,286.07181 306.76172,288.33846 C 304.42285,290.59068 301.18169,291.71679 297.0382,291.71679 C 293.34225,291.71679 290.35373,290.77836 288.07265,288.90152 C 285.27181,286.57712 283.8714,283.53085 283.8714,279.76271 M 292.70702,279.74106 C 292.70701,281.79116 293.11847,283.30708 293.94141,284.2888 C 294.77876,285.27054 295.82546,285.76141 297.08152,285.76141 C 298.35198,285.76141 299.39146,285.27776 300.19997,284.31046 C 301.02288,283.34317 301.43434,281.79116 301.43436,279.65443 C 301.43434,277.6621 301.02288,276.18228 300.19997,275.21497 C 299.37703,274.23325 298.3592,273.74238 297.14648,273.74236 C 295.86155,273.74238 294.80041,274.24047 293.96306,275.23662 C 293.12569,276.21837 292.70701,277.71985 292.70702,279.74106 M 313.4967,279.76271 C 313.4967,276.25447 314.68056,273.36701 317.04828,271.10034 C 319.41598,268.81927 322.61384,267.67873 326.64185,267.6787 C 331.24733,267.67873 334.72671,269.01418 337.08001,271.68505 C 338.97127,273.83622 339.91691,276.48546 339.91694,279.63278 C 339.91691,283.16992 338.74027,286.07181 336.38702,288.33846 C 334.04816,290.59068 330.80699,291.71679 326.66351,291.71679 C 322.96755,291.71679 319.97904,290.77836 317.69795,288.90152 C 314.89712,286.57712 313.4967,283.53085 313.4967,279.76271 M 322.33232,279.74106 C 322.33231,281.79116 322.74377,283.30708 323.56671,284.2888 C 324.40406,285.27054 325.45076,285.76141 326.70682,285.76141 C 327.97729,285.76141 329.01677,285.27776 329.82527,284.31046 C 330.64818,283.34317 331.05964,281.79116 331.05966,279.65443 C 331.05964,277.6621 330.64818,276.18228 329.82527,275.21497 C 329.00233,274.23325 327.9845,273.74238 326.77179,273.74236 C 325.48686,273.74238 324.42572,274.24047 323.58837,275.23662 C 322.75099,276.21837 322.33231,277.71985 322.33232,279.74106 M 359.08244,268.19845 L 367.31169,268.19845 L 367.31169,271.55512 C 368.49554,270.15472 369.68661,269.15855 370.88492,268.5666 C 372.09764,267.97469 373.5558,267.67873 375.25942,267.6787 C 377.09294,267.67873 378.54388,268.00357 379.61226,268.65322 C 380.6806,269.30292 381.55405,270.27022 382.23263,271.55512 C 383.61858,270.05366 384.88184,269.03583 386.02242,268.50163 C 387.16293,267.95304 388.57057,267.67873 390.24532,267.6787 C 392.71406,267.67873 394.64144,268.41503 396.02746,269.88761 C 397.4134,271.34579 398.10638,273.6341 398.10643,276.75254 L 398.10643,291.19704 L 389.27081,291.19704 L 389.27081,278.09521 C 389.27077,277.05574 389.06865,276.28334 388.66444,275.77802 C 388.07248,274.98399 387.33618,274.58696 386.45554,274.58695 C 385.41602,274.58696 384.57866,274.96233 383.94345,275.71305 C 383.30818,276.46381 382.99056,277.66932 382.99059,279.32959 L 382.99059,291.19704 L 374.15497,291.19704 L 374.15497,278.52833 C 374.15495,277.51773 374.0972,276.83196 373.98172,276.47101 C 373.79402,275.89354 373.46918,275.43154 373.0072,275.08503 C 372.54519,274.72412 372.0038,274.54365 371.38301,274.54363 C 370.37238,274.54365 369.54224,274.92624 368.89258,275.6914 C 368.24289,276.45659 367.91805,277.71263 367.91806,279.45953 L 367.91806,291.19704 L 359.08244,291.19704 L 359.08244,268.19845 M 427.60179,291.19704 L 419.37254,291.19704 L 419.37254,287.47222 C 418.14535,289.00258 416.90375,290.09259 415.64772,290.74227 C 414.4061,291.39195 412.87575,291.71679 411.05666,291.71679 C 408.63119,291.71679 406.72547,290.99492 405.3395,289.55119 C 403.96795,288.09303 403.28218,285.85525 403.28218,282.83786 L 403.28218,268.19845 L 412.13946,268.19845 L 412.13946,280.84551 C 412.13945,282.28925 412.40654,283.31429 412.94073,283.92065 C 413.47489,284.52702 414.22563,284.83021 415.19294,284.8302 C 416.24685,284.83021 417.10587,284.42596 417.77,283.61747 C 418.44853,282.80899 418.78781,281.35804 418.78783,279.26463 L 418.78783,268.19845 L 427.60179,268.19845 L 427.60179,291.19704 M 450.14564,282.20983 L 458.52648,283.16269 C 458.06446,284.90961 457.30651,286.42553 456.25261,287.71044 C 455.19866,288.98092 453.84878,289.96988 452.20295,290.6773 C 450.57152,291.38473 448.49255,291.73844 445.96604,291.73844 C 443.52613,291.73844 441.49047,291.51466 439.85907,291.06711 C 438.24209,290.60512 436.84889,289.86882 435.67948,288.8582 C 434.51005,287.83316 433.59329,286.63487 432.92917,285.26332 C 432.26506,283.89178 431.933,282.07269 431.933,279.80603 C 431.933,277.43832 432.33724,275.46764 433.14573,273.89396 C 433.73766,272.73899 434.54615,271.70673 435.5712,270.79716 C 436.59624,269.87319 437.65016,269.18742 438.73296,268.73984 C 440.45099,268.03244 442.65267,267.67873 445.33802,267.6787 C 449.0917,267.67873 451.95028,268.35006 453.91377,269.69271 C 455.89165,271.03539 457.27763,272.99886 458.07171,275.58312 L 449.77749,276.68757 C 449.5176,275.70585 449.04117,274.96955 448.3482,274.47867 C 447.66963,273.97338 446.75286,273.72073 445.59789,273.72071 C 444.13971,273.72073 442.95586,274.24769 442.04632,275.30159 C 441.1512,276.34109 440.70364,277.92197 440.70365,280.04424 C 440.70364,281.93553 441.1512,283.37204 442.04632,284.35377 C 442.94142,285.33551 444.08196,285.82638 445.46796,285.82637 C 446.62292,285.82638 447.59022,285.53041 448.36985,284.93848 C 449.16388,284.34656 449.75581,283.43701 450.14564,282.20983 M 461.83985,259.44945 L 470.65381,259.44945 L 470.65381,271.14365 C 471.85209,269.90207 473.04317,269.01418 474.22704,268.47997 C 475.41088,267.94582 476.81129,267.67873 478.42829,267.6787 C 480.82486,267.67873 482.70892,268.40781 484.08049,269.86595 C 485.46644,271.32414 486.15943,273.56192 486.15945,276.57929 L 486.15945,291.19704 L 477.30218,291.19704 L 477.30218,278.54998 C 477.30216,277.10627 477.03507,276.08844 476.50091,275.49649 C 475.96671,274.89015 475.21598,274.58696 474.24869,274.58695 C 473.18032,274.58696 472.31408,274.99121 471.64998,275.79968 C 470.98585,276.60818 470.6538,278.05913 470.65381,280.15252 L 470.65381,291.19704 L 461.83985,291.19704 L 461.83985,259.44945 M 516.08794,268.19845 L 520.28919,268.19845 L 520.28919,274.65191 L 516.08794,274.65191 L 516.08794,291.19704 L 507.25232,291.19704 L 507.25232,274.65191 L 503.96062,274.65191 L 503.96062,268.19845 L 507.25232,268.19845 L 507.25232,267.15896 C 507.25232,266.22056 507.35338,265.1883 507.5555,264.06216 C 507.75762,262.93608 508.13299,262.01932 508.68161,261.31186 C 509.24466,260.59003 510.02427,260.01254 511.02045,259.57939 C 512.03105,259.13186 513.50366,258.90808 515.43826,258.90805 C 516.98304,258.90808 519.22803,259.08855 522.17326,259.44945 L 521.19874,264.77681 C 520.1448,264.60359 519.293,264.51697 518.64334,264.51694 C 517.84927,264.51697 517.279,264.65412 516.93252,264.9284 C 516.58601,265.1883 516.34058,265.60698 516.19622,266.18444 C 516.12402,266.50209 516.08793,267.17342 516.08794,268.19845 M 547.74892,291.19704 L 539.51966,291.19704 L 539.51966,287.47222 C 538.29248,289.00258 537.05087,290.09259 535.79484,290.74227 C 534.55322,291.39195 533.02287,291.71679 531.20379,291.71679 C 528.77831,291.71679 526.87259,290.99492 525.48662,289.55119 C 524.11508,288.09303 523.42931,285.85525 523.42931,282.83786 L 523.42931,268.19845 L 532.28658,268.19845 L 532.28658,280.84551 C 532.28657,282.28925 532.55366,283.31429 533.08785,283.92065 C 533.62202,284.52702 534.37276,284.83021 535.34007,284.8302 C 536.39398,284.83021 537.25299,284.42596 537.91713,283.61747 C 538.59566,282.80899 538.93494,281.35804 538.93495,279.26463 L 538.93495,268.19845 L 547.74892,268.19845 L 547.74892,291.19704 M 553.14124,268.19845 L 561.34883,268.19845 L 561.34883,271.94492 C 562.57599,270.41459 563.8176,269.32458 565.07365,268.67488 C 566.32968,268.01078 567.86003,267.67873 569.66471,267.6787 C 572.10459,267.67873 574.01031,268.40781 575.38188,269.86595 C 576.76783,271.3097 577.46082,273.54748 577.46085,276.57929 L 577.46085,291.19704 L 568.60357,291.19704 L 568.60357,278.54998 C 568.60355,277.10627 568.33646,276.08844 567.8023,275.49649 C 567.26811,274.89015 566.51737,274.58696 565.55008,274.58695 C 564.48171,274.58696 563.61548,274.99121 562.95137,275.79968 C 562.28725,276.60818 561.95519,278.05913 561.9552,280.15252 L 561.9552,291.19704 L 553.14124,291.19704 L 553.14124,268.19845 M 587.33594,258.90805 L 581.83534,258.90805 C 583.72662,263.09489 585.09094,266.96408 585.92831,270.51563 C 586.63573,273.53304 586.98944,276.75255 586.98945,280.17418 C 586.98944,286.77202 585.27141,293.55754 581.83534,300.53075 L 587.33594,300.53075 C 590.13677,296.56049 592.10024,292.97283 593.22636,289.76775 C 594.36689,286.54824 594.93716,283.17714 594.93717,279.65443 C 594.93716,276.00182 594.33801,272.52965 593.13973,269.23793 C 591.95586,265.94626 590.02127,262.50297 587.33594,258.90805"
       id="text3330"
       style="font-size:8.31587791px;font-style:normal;font-weight:normal;fill:#000000;fill-opacity:1;stroke:none;stroke-width:1px;stroke-linecap:butt;stroke-linejoin:miter;stroke-opacity:1;font-family:Bitstream Vera Sans" />
  </g>
</svg>
